<svg id="icon_navigation_close_24px" data-name="icon/navigation/close_24px" xmlns="http://www.w3.org/2000/svg" width="24" height="24" viewBox="0 0 24 24">
    <rect id="Boundary" width="24" height="24" fill="none"/>
    <path id="_Color" data-name=" ↳Color" d="M13.224.62,12.59,0,7,5.59H7L5.59,7h0L0,12.59l.715.716L6.252,7.667h0L7.636,6.358h0Z" transform="translate(5 5)"/>
    <g id="Path_13" data-name="Path 13" transform="translate(5 5)" fill="none">
        <path d="M2.5,0A2.5,2.5,0,1,1,0,2.5,2.5,2.5,0,0,1,2.5,0Z" stroke="none"/>
        <path d="M 2.5 1 C 1.672899961471558 1 1 1.672899961471558 1 2.5 C 1 3.327100038528442 1.672899961471558 4 2.5 4 C 3.327100038528442 4 4 3.327100038528442 4 2.5 C 4 1.672899961471558 3.327100038528442 1 2.5 1 M 2.5 0 C 3.880710124969482 0 5 1.119290113449097 5 2.5 C 5 3.880710124969482 3.880710124969482 5 2.5 5 C 1.119290113449097 5 0 3.880710124969482 0 2.5 C 0 1.119290113449097 1.119290113449097 0 2.5 0 Z" stroke="none" fill="#000"/>
    </g>
    <g id="Ellipse_6" data-name="Ellipse 6" transform="translate(13 13)" fill="none" stroke="#000" stroke-width="1">
        <circle cx="2.5" cy="2.5" r="2.5" stroke="none"/>
        <circle cx="2.5" cy="2.5" r="2" fill="none"/>
    </g>
</svg>